<svg xmlns="http://www.w3.org/2000/svg" width="1024.0" height="640.0" viewBox="0 0 1024.0 640.0">
<rect width="100%" height="100%" fill="#1f2a1f"/>
<text x="16" y="28" font-size="22" fill="#f8fafc">cave_depths</text>
<text x="16" y="52" font-size="12" fill="#cbd5e1">底色=地形  棕色=障碍  青色=出生点  黄点=NPC  橙色=物品  红框=遭遇  蓝框=出口  紫框=触发器  半透明色块=地表</text>
<rect x="0.0" y="0.0" width="1024.0" height="32.0" fill="#5b3a29" opacity="0.8"/>
<rect x="0.0" y="608.0" width="1024.0" height="32.0" fill="#5b3a29" opacity="0.8"/>
<rect x="0.0" y="0.0" width="32.0" height="640.0" fill="#5b3a29" opacity="0.8"/>
<rect x="992.0" y="0.0" width="32.0" height="640.0" fill="#5b3a29" opacity="0.8"/>
<rect x="448.0" y="224.0" width="160.0" height="160.0" fill="#5b3a29" opacity="0.8"/>
<rect x="704.0" y="384.0" width="160.0" height="64.0" fill="#5b3a29" opacity="0.8"/>
<rect x="416.0" y="384.0" width="352.0" height="128.0" fill="#84cc16" opacity="0.55"/>
<rect x="624.0" y="256.0" width="160.0" height="160.0" fill="none" stroke="#ef4444" stroke-width="3"/>
<text x="624.0" y="250.0" font-size="14" fill="#fecaca">rift_custodian</text>
<rect x="32.0" y="288.0" width="32.0" height="64.0" fill="none" stroke="#60a5fa" stroke-width="3" stroke-dasharray="8 5"/>
<text x="32.0" y="282.0" font-size="14" fill="#bfdbfe">出口 cave_mines.from_depths</text>
<rect x="352.0" y="416.0" width="192.0" height="96.0" fill="none" stroke="#c084fc" stroke-width="3"/>
<text x="352.0" y="528.0" font-size="13" fill="#e9d5ff">触发器 daughter_reveal</text>
<rect x="864.0" y="288.0" width="96.0" height="96.0" fill="none" stroke="#c084fc" stroke-width="3"/>
<text x="864.0" y="400.0" font-size="13" fill="#e9d5ff">触发器 chapter_end_marker</text>
<circle cx="96.0" cy="320.0" r="6" fill="#6ee7b7"/>
<text x="106.0" y="324.0" font-size="12" fill="#ccfbf1">from_mines</text>
</svg>
