<svg xmlns="http://www.w3.org/2000/svg" width="1024.0" height="640.0" viewBox="0 0 1024.0 640.0">
<rect width="100%" height="100%" fill="#1f2a1f"/>
<text x="16" y="28" font-size="22" fill="#f8fafc">wilds_riverbank</text>
<text x="16" y="52" font-size="12" fill="#cbd5e1">底色=地形  棕色=障碍  青色=出生点  黄点=NPC  橙色=物品  红框=遭遇  蓝框=出口  紫框=触发器  半透明色块=地表</text>
<rect x="0.0" y="0.0" width="1024.0" height="32.0" fill="#5b3a29" opacity="0.8"/>
<rect x="0.0" y="608.0" width="1024.0" height="32.0" fill="#5b3a29" opacity="0.8"/>
<rect x="0.0" y="0.0" width="32.0" height="640.0" fill="#5b3a29" opacity="0.8"/>
<rect x="992.0" y="0.0" width="32.0" height="640.0" fill="#5b3a29" opacity="0.8"/>
<rect x="352.0" y="384.0" width="320.0" height="96.0" fill="#5b3a29" opacity="0.8"/>
<rect x="256.0" y="384.0" width="512.0" height="160.0" fill="#38bdf8" opacity="0.55"/>
<rect x="32.0" y="480.0" width="32.0" height="64.0" fill="none" stroke="#60a5fa" stroke-width="3" stroke-dasharray="8 5"/>
<text x="32.0" y="474.0" font-size="14" fill="#bfdbfe">出口 village_riverside.from_wilds_riverbank</text>
<rect x="32.0" y="128.0" width="32.0" height="64.0" fill="none" stroke="#60a5fa" stroke-width="3" stroke-dasharray="8 5"/>
<text x="32.0" y="122.0" font-size="14" fill="#bfdbfe">出口 wilds_road.from_riverbank</text>
<rect x="960.0" y="288.0" width="32.0" height="64.0" fill="none" stroke="#60a5fa" stroke-width="3" stroke-dasharray="8 5"/>
<text x="960.0" y="282.0" font-size="14" fill="#bfdbfe">出口 cave_entrance.from_riverbank</text>
<rect x="730.0" y="506.0" width="12" height="12" fill="#f59e0b"/>
<text x="746.0" y="516.0" font-size="12" fill="#fed7aa">bitterroot_herb</text>
<rect x="250.0" y="186.0" width="12" height="12" fill="#f59e0b"/>
<text x="266.0" y="196.0" font-size="12" fill="#fed7aa">minor_healing_draught</text>
<circle cx="96.0" cy="512.0" r="6" fill="#6ee7b7"/>
<text x="106.0" y="516.0" font-size="12" fill="#ccfbf1">from_riverside</text>
<circle cx="96.0" cy="160.0" r="6" fill="#6ee7b7"/>
<text x="106.0" y="164.0" font-size="12" fill="#ccfbf1">from_road</text>
<circle cx="896.0" cy="320.0" r="6" fill="#6ee7b7"/>
<text x="906.0" y="324.0" font-size="12" fill="#ccfbf1">from_cave_entrance</text>
</svg>
